<svg width="44" height="19" viewBox="0 0 44 19" fill="none" xmlns="http://www.w3.org/2000/svg">
<path d="M3.3 -9.53674e-07H6.12L4.16 11.5H9.58L9.14 14H0.9L3.3 -9.53674e-07ZM10.7652 9.4C10.8985 8.46667 11.2318 7.64 11.7652 6.92C12.2985 6.2 12.9652 5.63333 13.7652 5.22C14.5785 4.80667 15.4585 4.6 16.4052 4.6C17.3518 4.6 18.1652 4.81333 18.8452 5.24C19.5385 5.66667 20.0518 6.24667 20.3852 6.98C20.7318 7.7 20.8452 8.50667 20.7252 9.4C20.6052 10.32 20.2785 11.14 19.7452 11.86C19.2118 12.58 18.5385 13.1467 17.7252 13.56C16.9252 13.9733 16.0452 14.18 15.0852 14.18C14.1518 14.18 13.3385 13.9733 12.6452 13.56C11.9652 13.1333 11.4518 12.56 11.1052 11.84C10.7718 11.1067 10.6585 10.2933 10.7652 9.4ZM13.3652 9.4C13.2985 9.84 13.3318 10.26 13.4652 10.66C13.5985 11.06 13.8185 11.38 14.1252 11.62C14.4318 11.86 14.8118 11.9867 15.2652 12C15.7452 12 16.1852 11.8867 16.5852 11.66C16.9985 11.42 17.3385 11.1 17.6052 10.7C17.8852 10.3 18.0585 9.86667 18.1252 9.4C18.1918 8.93333 18.1585 8.50667 18.0252 8.12C17.8918 7.73333 17.6718 7.41333 17.3652 7.16C17.0585 6.90667 16.6718 6.78 16.2052 6.78C15.7518 6.76667 15.3185 6.88 14.9052 7.12C14.4918 7.36 14.1518 7.68 13.8852 8.08C13.6185 8.48 13.4452 8.92 13.3652 9.4ZM21.097 14.64H23.557C23.557 15.0267 23.6237 15.36 23.757 15.64C23.8904 15.9333 24.097 16.16 24.377 16.32C24.6704 16.48 25.0304 16.56 25.457 16.56C25.9504 16.56 26.4037 16.4467 26.817 16.22C27.2304 15.9933 27.577 15.6667 27.857 15.24C28.137 14.8133 28.317 14.3333 28.397 13.8L29.957 4.8H32.437L30.897 13.8C30.7504 14.8133 30.4237 15.6867 29.917 16.42C29.4104 17.1533 28.7704 17.7133 27.997 18.1C27.237 18.5 26.377 18.7 25.417 18.7C24.457 18.7 23.6504 18.5333 22.997 18.2C22.3437 17.8667 21.857 17.3933 21.537 16.78C21.217 16.1667 21.0704 15.4533 21.097 14.64ZM21.837 9.3C21.957 8.39333 22.257 7.58667 22.737 6.88C23.2304 6.16 23.837 5.6 24.557 5.2C25.277 4.78667 26.0504 4.58667 26.877 4.6C27.4904 4.6 28.0104 4.72667 28.437 4.98C28.877 5.23333 29.2237 5.58 29.477 6.02C29.7304 6.46 29.897 6.96 29.977 7.52C30.0704 8.08 30.077 8.68 29.997 9.32C29.917 9.97333 29.7437 10.5867 29.477 11.16C29.2237 11.72 28.897 12.22 28.497 12.66C28.1104 13.0867 27.657 13.42 27.137 13.66C26.617 13.9 26.0504 14.02 25.437 14.02C24.6104 14.02 23.9037 13.8133 23.317 13.4C22.7437 12.9733 22.3237 12.4067 22.057 11.7C21.7904 10.98 21.717 10.18 21.837 9.3ZM24.477 9.32C24.4104 9.78667 24.437 10.2133 24.557 10.6C24.6904 10.9867 24.9104 11.2933 25.217 11.52C25.537 11.7467 25.9237 11.86 26.377 11.86C26.697 11.8733 27.0104 11.82 27.317 11.7C27.6237 11.5667 27.9104 11.3867 28.177 11.16C28.4437 10.92 28.6637 10.64 28.837 10.32C29.0104 10 29.1304 9.66 29.197 9.3C29.2504 8.95333 29.2437 8.62667 29.177 8.32C29.1104 8.01333 28.997 7.74667 28.837 7.52C28.677 7.28 28.477 7.09333 28.237 6.96C27.997 6.82667 27.717 6.75333 27.397 6.74C26.917 6.74 26.4704 6.85333 26.057 7.08C25.6437 7.29333 25.297 7.6 25.017 8C24.737 8.38667 24.557 8.82667 24.477 9.32ZM33.5386 9.4C33.6719 8.46667 34.0053 7.64 34.5386 6.92C35.0719 6.2 35.7386 5.63333 36.5386 5.22C37.3519 4.80667 38.2319 4.6 39.1786 4.6C40.1253 4.6 40.9386 4.81333 41.6186 5.24C42.3119 5.66667 42.8253 6.24667 43.1586 6.98C43.5053 7.7 43.6186 8.50667 43.4986 9.4C43.3786 10.32 43.0519 11.14 42.5186 11.86C41.9853 12.58 41.3119 13.1467 40.4986 13.56C39.6986 13.9733 38.8186 14.18 37.8586 14.18C36.9253 14.18 36.1119 13.9733 35.4186 13.56C34.7386 13.1333 34.2253 12.56 33.8786 11.84C33.5453 11.1067 33.4319 10.2933 33.5386 9.4ZM36.1386 9.4C36.0719 9.84 36.1053 10.26 36.2386 10.66C36.3719 11.06 36.5919 11.38 36.8986 11.62C37.2053 11.86 37.5853 11.9867 38.0386 12C38.5186 12 38.9586 11.8867 39.3586 11.66C39.7719 11.42 40.1119 11.1 40.3786 10.7C40.6586 10.3 40.8319 9.86667 40.8986 9.4C40.9653 8.93333 40.9319 8.50667 40.7986 8.12C40.6653 7.73333 40.4453 7.41333 40.1386 7.16C39.8319 6.90667 39.4453 6.78 38.9786 6.78C38.5253 6.76667 38.0919 6.88 37.6786 7.12C37.2653 7.36 36.9253 7.68 36.6586 8.08C36.3919 8.48 36.2186 8.92 36.1386 9.4Z" fill="#1D1D1D"/>
</svg>
